# xmcd CD database file
#
# Track frame offsets:
#	150
#	20472
#	50364
#	75651
#	97580
#	119282
#	135459
#	174037
#	203401
#	219874
#	237707
#	257826
#
# Disc length: 3752 seconds
#
# Revision: 2
# Processed by: cddbd v1.5.2PL0 Copyright (c) Steve Scherf et al.
# Submitted via: CDex 1.70
#
DISCID=8d0ea60c
DTITLE=Songs Of BOB DYLAN - All Blues'd Up!
DYEAR=2003
DGENRE=Blues
TTITLE0=(Taj Mahal)It Takes A Lot To Laugh, It Takes A Train To Cry
TTITLE1=(Mavis Staples)Gotta Serve Somebody
TTITLE2=(Isaac Hayes)Lay Lady Lay
TTITLE3=(R.L. Burnside)Everything Is Broken
TTITLE4=(Luther ''Guitar Junior Jr.'' Johnson)Pledging My Time
TTITLE5=(John Hammond)I'll Be Your Baby Tonight
TTITLE6=(James Solberg)Ballad Of A Thin Man
TTITLE7=(Alvin 'Youngblood' Hart)Million Miles
TTITLE8=(Leon Russell)Watching The River Flow
TTITLE9=(The Holmes Brothers)Wallflower
TTITLE10=(Larry McCray)All Along The Watchtower
TTITLE11=(The Band)One Too Many Mornings
EXTD=YEAR: 2003
EXTT0=
EXTT1=
EXTT2=
EXTT3=
EXTT4=
EXTT5=
EXTT6=
EXTT7=
EXTT8=
EXTT9=
EXTT10=
EXTT11=
PLAYORDER=
